<?xml version="1.0" encoding="UTF-8"?>
<svg version="1.1" xmlns="http://www.w3.org/2000/svg" width="48" height="48">
<path d="M0 0 C0.78117187 -0.01160156 1.56234375 -0.02320312 2.3671875 -0.03515625 C7.32472486 -0.01011818 10.65708821 0.74419767 15 3.375 C15 4.035 15 4.695 15 5.375 C16.32 6.035 17.64 6.695 19 7.375 C19 8.035 19 8.695 19 9.375 C19.66 9.375 20.32 9.375 21 9.375 C24.11918803 14.5241358 24.46167638 18.5387905 24.375 24.375 C24.38660156 25.15617187 24.39820313 25.93734375 24.41015625 26.7421875 C24.38511818 31.69972486 23.63080233 35.03208821 21 39.375 C20.34 39.375 19.68 39.375 19 39.375 C18.34 40.695 17.68 42.015 17 43.375 C16.34 43.375 15.68 43.375 15 43.375 C15 44.035 15 44.695 15 45.375 C9.8508642 48.49418803 5.8362095 48.83667638 0 48.75 C-1.17175781 48.76740234 -1.17175781 48.76740234 -2.3671875 48.78515625 C-7.32472486 48.76011818 -10.65708821 48.00580233 -15 45.375 C-15 44.715 -15 44.055 -15 43.375 C-16.32 42.715 -17.64 42.055 -19 41.375 C-19 40.715 -19 40.055 -19 39.375 C-19.66 39.375 -20.32 39.375 -21 39.375 C-24.11918803 34.2258642 -24.46167638 30.2112095 -24.375 24.375 C-24.38660156 23.59382813 -24.39820312 22.81265625 -24.41015625 22.0078125 C-24.38511818 17.05027514 -23.63080233 13.71791179 -21 9.375 C-20.34 9.375 -19.68 9.375 -19 9.375 C-18.34 8.055 -17.68 6.735 -17 5.375 C-16.34 5.375 -15.68 5.375 -15 5.375 C-15 4.715 -15 4.055 -15 3.375 C-9.8508642 0.25581197 -5.8362095 -0.08667638 0 0 Z " fill="#54ABFF" transform="translate(24,-0.375)"/>
<path d="M0 0 C0.66 0.33 1.32 0.66 2 1 C2.14308594 1.60585938 2.28617188 2.21171875 2.43359375 2.8359375 C3.11958934 5.45691377 4.22764801 6.65567895 6.0625 8.625 C9 11.79058824 9 11.79058824 9 14 C6.625 14.125 6.625 14.125 4 14 C3.34 13.34 2.68 12.68 2 12 C1.01 13.485 1.01 13.485 0 15 C-0.66 14.34 -1.32 13.68 -2 13 C-3.65 13 -5.3 13 -7 13 C-7 9.04 -7 5.08 -7 1 C-5.35 1 -3.7 1 -2 1 C-2 2.32 -2 3.64 -2 5 C-1.34 5 -0.68 5 0 5 C0 3.35 0 1.7 0 0 Z " fill="#5AACFF" transform="translate(31,17)"/>
<path d="M0 0 C1.37478516 0.01740234 1.37478516 0.01740234 2.77734375 0.03515625 C3.69644531 0.04417969 4.61554687 0.05320312 5.5625 0.0625 C6.27277344 0.07410156 6.98304687 0.08570313 7.71484375 0.09765625 C7.71484375 1.74765625 7.71484375 3.39765625 7.71484375 5.09765625 C7.05484375 4.43765625 6.39484375 3.77765625 5.71484375 3.09765625 C3.14423064 2.44997832 3.14423064 2.44997832 0.71484375 2.09765625 C1.23175781 2.60554688 1.74867187 3.1134375 2.28125 3.63671875 C7.72856588 9.32921714 7.72856588 9.32921714 7.65234375 13.59765625 C7.34296875 14.42265625 7.03359375 15.24765625 6.71484375 16.09765625 C3.08484375 16.09765625 -0.54515625 16.09765625 -4.28515625 16.09765625 C-4.28515625 14.44765625 -4.28515625 12.79765625 -4.28515625 11.09765625 C-3.89328125 11.57203125 -3.50140625 12.04640625 -3.09765625 12.53515625 C-0.87259598 14.45331165 0.86023896 14.61643809 3.71484375 15.09765625 C3.12574219 14.4221875 2.53664063 13.74671875 1.9296875 13.05078125 C1.17816406 12.15875 0.42664062 11.26671875 -0.34765625 10.34765625 C-1.10175781 9.4659375 -1.85585938 8.58421875 -2.6328125 7.67578125 C-4.28515625 5.09765625 -4.28515625 5.09765625 -4.09375 2.83203125 C-2.82979122 0.12093125 -2.82979122 0.12093125 0 0 Z " fill="#D9EBFF" transform="translate(36.28515625,15.90234375)"/>
<path d="M0 0 C3.63 0 7.26 0 11 0 C11 1.98 11 3.96 11 6 C10.34 6 9.68 6 9 6 C9 4.68 9 3.36 9 2 C7.35 2 5.7 2 4 2 C4 5.96 4 9.92 4 14 C5.98 13.67 7.96 13.34 10 13 C9.67 13.99 9.34 14.98 9 16 C5.7 16 2.4 16 -1 16 C-1.02692484 13.70839681 -1.04636124 11.41670454 -1.0625 9.125 C-1.07410156 7.84882813 -1.08570312 6.57265625 -1.09765625 5.2578125 C-1 2 -1 2 0 0 Z " fill="#8DC6FF" transform="translate(20,16)"/>
<path d="M0 0 C4.29 0 8.58 0 13 0 C13 1.65 13 3.3 13 5 C12.67 3.68 12.34 2.36 12 1 C11.01 1 10.02 1 9 1 C9.33 5.95 9.66 10.9 10 16 C7.69 16 5.38 16 3 16 C3.33 11.05 3.66 6.1 4 1 C3.01 1 2.02 1 1 1 C0.67 2.32 0.34 3.64 0 5 C0 3.35 0 1.7 0 0 Z " fill="#D8EBFF" transform="translate(4,16)"/>
<path d="M0 0 C0.99 0 1.98 0 3 0 C3 4.62 3 9.24 3 14 C1.68 13.67 0.36 13.34 -1 13 C-1.02686553 11.02090602 -1.04633375 9.04171029 -1.0625 7.0625 C-1.07410156 5.96035156 -1.08570312 4.85820312 -1.09765625 3.72265625 C-1 1 -1 1 0 0 Z " fill="#F5FAFF" transform="translate(20,17)"/>
</svg>
